<mxfile host="app.diagrams.net" modified="2023-09-27T08:55:10.539Z" agent="Mozilla/5.0 (Macintosh; Intel Mac OS X 10_15_7) AppleWebKit/537.36 (KHTML, like Gecko) Chrome/116.0.0.0 Safari/537.36" version="21.8.2" etag="AQH6QItcpA-d08uz6Ba3" type="github">
  <diagram name="第 1 页" id="4XNFDKyNVr-vmgoPOYZL">
    <mxGraphModel>
      <root>
        <mxCell id="0" />
        <mxCell id="1" parent="0" />
      </root>
    </mxGraphModel>
  </diagram>
</mxfile>
